<svg xmlns="http://www.w3.org/2000/svg" xmlns:xlink="http://www.w3.org/1999/xlink" version="1.1" x="0px" y="0px" viewBox="0 0 100 125" enable-background="new 0 0 100 100" xml:space="preserve"><path fill-rule="evenodd" clip-rule="evenodd" d="M34.094,78.413c-0.238-0.385-0.523-0.397-0.798-0.369  c-0.75,0.083-1.499,0.188-2.246,0.287c-0.409,0.058-0.814,0.154-1.224,0.172c-1.342,0.066-2.688,0.054-4.017,0.293  c-0.813,0.147-1.622,0.312-2.433,0.462c-0.304,0.058-0.611,0.136-0.917,0.138c-2.343,0.016-4.687,0.009-7.03,0.016  c-0.529,0.002-1.017-0.106-1.492-0.349c-0.302-0.153-0.643-0.238-0.973-0.33c-0.428-0.125-0.833-0.043-1.166,0.244  c-0.353,0.303-0.753,0.464-1.195,0.576c-0.297,0.076-0.597,0.189-0.861,0.345c-0.693,0.415-1.444,0.421-2.206,0.364  c-0.454-0.031-0.694-0.257-0.711-0.727c-0.027-0.758-0.026-1.518,0.009-2.272c0.022-0.451,0.185-0.874,0.508-1.22  c0.165-0.175,0.317-0.363,0.467-0.554c0.457-0.581,1.059-0.86,1.793-0.873c0.311-0.005,0.62-0.021,0.931-0.021  c2.724,0.005,5.448,0.005,8.171,0.015c0.833,0.004,1.644-0.068,2.434-0.376c0.443-0.173,0.93-0.257,1.405-0.322  c0.492-0.069,0.922-0.23,1.333-0.511c0.963-0.661,1.921-1.333,2.932-1.912c0.565-0.324,1.111-0.681,1.672-1.005  c1.07-0.622,1.821-1.554,2.583-2.484c0.064-0.079,0.109-0.176,0.152-0.269c0.298-0.657,0.61-1.309,0.885-1.975  c0.183-0.448,0.378-0.882,0.661-1.279c0.15-0.214,0.242-0.505,0.257-0.768c0.013-0.219-0.059-0.507-0.203-0.663  c-0.806-0.851-1.664-1.646-2.775-2.103c-0.253-0.104-0.507-0.218-0.747-0.353c-0.747-0.412-1.526-0.445-2.295-0.132  c-0.792,0.319-1.643,0.544-2.284,1.168c-0.049,0.048-0.107,0.096-0.168,0.121c-0.862,0.336-1.717,0.694-2.592,0.992  c-0.426,0.145-0.846,0.263-1.211,0.545c-0.212,0.166-0.482,0.259-0.727,0.381c-0.335,0.169-0.672,0.328-1.008,0.498  c-0.245,0.12-0.475,0.292-0.732,0.367c-0.373,0.103-0.714,0.244-1.005,0.502c-0.051,0.047-0.105,0.101-0.167,0.119  c-1.086,0.318-2.033,1.011-3.184,1.161c-0.579,0.076-1.156,0.188-1.728,0.312c-0.644,0.14-1.289,0.205-1.948,0.186  c-0.759-0.024-1.518-0.026-2.275,0.011c-0.51,0.025-0.95-0.102-1.356-0.394c-1.335-0.967-2.194-2.219-2.041-3.923  c0.072-0.81,0.305-1.632,0.619-2.384c0.231-0.552,0.695-1.017,1.085-1.493c0.327-0.401,0.675-0.786,1.053-1.138  c1.097-1.025,1.881-2.274,2.633-3.551c0.289-0.492,0.332-1.046,0.332-1.603c0-1.275-0.002-2.551,0-3.826  c0-0.311,0.002-0.622,0.014-0.933c0.021-0.521,0.138-1.011,0.413-1.473c0.438-0.738,0.668-1.586,1.214-2.273  c0.899-1.132,1.797-2.261,2.897-3.208c0.391-0.335,0.772-0.684,1.184-0.991c0.937-0.691,1.914-1.315,2.913-1.92  c0.995-0.604,2.087-0.876,3.13-1.294c0.977-0.39,2.04-0.242,3.066-0.093c0.511,0.073,1.012,0.213,1.516,0.326  c0.942,0.209,1.89,0.375,2.859,0.433c0.51,0.03,1.029,0.131,1.516,0.29c0.825,0.269,1.652,0.496,2.522,0.522  c0.485,0.014,0.859,0.208,1.151,0.587c0.675,0.872,1.34,1.734,1.515,2.886c0.129,0.848,0.367,1.675,0.366,2.549  c0,0.903-0.081,1.782-0.34,2.651c-0.126,0.425-0.156,0.881-0.234,1.319c-0.036,0.205-0.019,0.457-0.135,0.595  c-0.425,0.511-0.614,1.155-0.994,1.675c-0.442,0.606-0.858,1.248-1.449,1.734c-0.528,0.435-1,0.946-1.625,1.25  c-0.795,0.391-1.009,0.353-1.65-0.249c-1.078-1.014-2.141-2.044-3.245-3.03c-0.667-0.592-1.376-1.137-1.958-1.822  c-0.576-0.681-1.112-1.385-1.619-2.123c-0.469-0.685-0.704-1.383-0.849-2.173c-0.137-0.742-0.372-1.468-0.598-2.191  c-0.188-0.604-0.271-0.672-0.881-1.09c-0.424,0.101-0.605,0.426-0.663,0.817c-0.139,0.959-0.207,1.941,0.022,2.878  c0.16,0.653,0.5,1.292,0.883,1.854c0.559,0.823,1.198,1.595,1.857,2.341c0.546,0.617,1.16,1.176,1.763,1.741  c1.11,1.039,2.086,2.192,2.96,3.434c0.176,0.249,0.304,0.537,0.438,0.816c0.209,0.432,0.395,0.878,0.61,1.311  c0.339,0.675,0.998,0.899,1.632,0.5c1.217-0.771,2.465-1.508,3.493-2.533c0.583-0.582,1.101-1.229,1.636-1.856  c0.244-0.285,0.49-0.575,0.684-0.895c0.405-0.671,0.875-1.327,1.135-2.054c0.243-0.678,0.42-1.368,0.759-2.016  c0.167-0.318,0.192-0.733,0.204-1.108c0.034-1.136,0.028-2.274,0.042-3.411c0.004-0.299-0.083-0.63,0.284-0.865  c0.098,0.052,0.225,0.099,0.325,0.18c0.451,0.37,0.884,0.764,1.345,1.119c0.242,0.186,0.526,0.322,0.799,0.463  c0.212,0.112,0.47,0.157,0.654,0.301c0.669,0.519,1.434,0.636,2.243,0.626c0.483-0.005,0.966,0.004,1.449,0.005  c0.802,0,1.532-0.214,2.285-0.53c1.819-0.764,3.281-2,4.727-3.28c1.21-1.073,2.421-2.145,3.627-3.223  c0.82-0.733,1.631-1.476,2.446-2.216c0.076-0.069,0.144-0.153,0.224-0.215c1.529-1.169,3.032-2.375,4.602-3.485  c0.838-0.591,1.693-1.167,2.56-1.721c0.692-0.442,1.426-0.815,2.129-1.241c0.673-0.409,1.345-0.823,1.988-1.274  c0.35-0.245,0.703-0.415,1.123-0.482c0.372-0.059,0.735-0.188,1.107-0.244c1.12-0.167,2.208-0.544,3.356-0.498  c0.513,0.021,1.029,0.081,1.535,0.172c1.152,0.208,2.299,0.443,3.448,0.667c0.17,0.033,0.356,0.034,0.503,0.109  c1.011,0.517,2.147,0.719,3.141,1.281c0.916,0.516,1.819,0.574,2.688-0.149c0.524-0.438,1.172-0.716,1.613-1.274  c0.619-0.78,1.329-1.494,1.612-2.49c0.01-0.032,0.021-0.066,0.04-0.095c1.019-1.61,0.746-3.376,0.605-5.121  c-0.02-0.236-0.094-0.48-0.201-0.691c-0.512-1.016-1.052-2.03-1.806-2.877c-0.593-0.663-1.345-1.176-2.175-1.538  c-0.347-0.151-0.724-0.242-1.052-0.423c-0.595-0.324-1.222-0.454-1.889-0.451c-0.931,0.002-1.861,0.002-2.792,0  c-0.806,0-1.564,0.223-2.324,0.453c-0.628,0.188-1.262,0.348-1.896,0.506c-0.121,0.03-0.26-0.009-0.467-0.02  c0.072-0.211,0.088-0.39,0.181-0.508c0.793-1.007,1.75-1.838,2.772-2.604c0.587-0.439,1.185-0.825,1.921-0.952  c0.099-0.016,0.196-0.069,0.28-0.128c0.745-0.514,1.608-0.542,2.464-0.661c1.352-0.188,2.68,0.014,4.015,0.123  c0.487,0.04,0.951,0.142,1.352,0.455c0.106,0.084,0.227,0.168,0.355,0.208c1.253,0.383,2.227,1.229,3.197,2.031  c1.035,0.854,1.955,1.87,2.609,3.045c0.463,0.833,1.02,1.643,1.242,2.6c0.034,0.134,0.065,0.279,0.142,0.389  c0.689,0.992,0.692,2.154,0.753,3.28c0.073,1.375,0.089,2.754-0.076,4.131c-0.074,0.631-0.241,1.206-0.565,1.749  c-0.264,0.442-0.453,0.932-0.748,1.352c-0.616,0.883-1.377,1.623-2.297,2.204c-0.521,0.329-0.986,0.715-1.589,0.931  c-0.507,0.181-0.949,0.545-1.408,0.849c-0.346,0.228-0.438,0.667-0.202,1.111c0.289,0.545,0.589,1.097,0.963,1.585  c0.297,0.393,0.542,0.791,0.681,1.261c0.027,0.099,0.062,0.201,0.116,0.286c0.66,1.062,0.606,2.238,0.56,3.413  c-0.001,0.034-0.001,0.07-0.01,0.103c-0.385,1.279-0.669,2.594-1.336,3.772c-0.068,0.12-0.181,0.226-0.213,0.352  c-0.245,0.97-0.93,1.671-1.472,2.459c-0.409,0.595-0.78,1.214-1.183,1.814c-0.783,1.169-1.583,2.329-2.366,3.498  c-0.133,0.2-0.218,0.43-0.329,0.643c-0.109,0.212-0.185,0.463-0.343,0.629c-0.324,0.335-0.444,0.766-0.661,1.148  c-0.463,0.814-0.822,1.653-1.009,2.57c-0.637,0.937-0.672,2.001-0.662,3.081c0.001,0.173,0.015,0.347-0.001,0.516  c-0.152,1.549,0.503,2.817,1.403,3.987c0.587,0.763,1.247,1.472,1.816,2.248c0.567,0.773,1.104,1.571,1.236,2.575  c0.061,0.471,0.223,0.938,0.401,1.378c0.173,0.425,0.308,0.846,0.322,1.298c0.035,1.169,0.071,2.34,0.088,3.513  c0.009,0.559-0.139,1.082-0.48,1.55c-0.241,0.331-0.401,0.721-0.621,1.072c-1.017,1.609-2.23,3.058-3.602,4.378  c-0.374,0.36-0.779,0.668-1.292,0.664c-1.552-0.018-3.004,0.183-4.556,0.203c-1.103,0.018-2.348-0.017-3.445,0.063  c-0.369,0.027-0.718-0.004-1.08,0.11c-0.672,0.213-0.93-0.074-1.014-0.785c-0.057-0.481,0.032-0.854,0.465-1.167  c0.384-0.283,0.686-0.676,1.178-0.804c0.127-0.033,0.238-0.138,0.354-0.209c0.057-0.041,0.101-0.102,0.161-0.131  c1.301-0.603,2.537-1.401,4.063-1.305c0.205,0.014,0.413,0.009,0.62,0c0.441-0.02,0.753-0.229,1.044-0.573  c0.631-0.751,1.051-1.618,1.468-2.483c0.374-0.77,0.328-1.612,0.163-2.435c-0.102-0.509-0.467-0.737-0.989-0.701  c-0.528,0.04-1.007,0.24-1.435,0.54c-0.505,0.358-1.005,0.723-1.468,1.128c-0.336,0.295-0.696,0.421-1.129,0.417  c-0.619-0.007-1.241,0-1.861,0c-2.069,0-3.9-0.684-6.205-0.005c-0.308,0-0.618-0.021-0.923-0.063  c-0.216-0.03-0.313-0.301-0.201-0.487c0.039-0.06,0.073-0.12,0.118-0.169c0.544-0.576,1.098-1.141,1.63-1.722  c0.246-0.272,0.523-0.425,0.893-0.443c1.461-0.069,2.836-0.545,4.229-0.924c0.384-0.103,0.675-0.331,0.963-0.581  c1.194-1.033,1.27-1.193,1.283-2.742c0.001-0.102-0.013-0.209,0.002-0.31c0.172-1.337-0.357-2.445-1.224-3.382  c-0.507-0.551-1.154-0.976-1.761-1.427c-1.075-0.797-2.211-1.515-3.243-2.373c-0.405-0.338-0.749-0.683-0.997-1.159  c-0.203-0.387-0.503-0.744-0.82-1.049c-0.449-0.432-0.883-0.402-1.234,0.09c-1.194,1.686-2.692,3.136-3.749,4.929  c-0.455,0.772-1.104,1.403-1.743,2.028c-1.153,1.136-2.287,2.291-3.568,3.287c-0.955,0.736-1.974,1.364-3.024,1.943  c-0.09,0.051-0.191,0.104-0.288,0.11c-0.897,0.063-1.525,0.655-2.114,1.202c-0.619,0.579-1.166,1.26-1.413,2.12  c-0.143,0.495-0.345,0.973-0.489,1.468c-0.114,0.395-0.203,0.798-0.271,1.204c-0.074,0.475-0.092,0.961-0.174,1.436  c-0.047,0.266-0.116,0.56-0.269,0.77c-0.378,0.525-0.524,1.116-0.623,1.732c-0.104,0.662-0.374,1.246-0.753,1.794  c-0.248,0.36-0.543,0.594-0.968,0.718c-0.426,0.122-0.847,0.293-1.236,0.503c-0.377,0.204-0.775,0.281-1.184,0.335  c-1.195,0.163-2.413,0.219-3.578,0.5c-1.256,0.3-2.526,0.296-3.786,0.45c-0.574,0.07-1.15,0.222-1.697,0.417  c-0.525,0.189-1.046,0.345-1.604,0.358c-0.906,0.024-1.776,0.204-2.62,0.54c-0.547,0.217-1.117,0.331-1.712,0.356  c-0.658,0.02-1.296,0.165-1.904,0.437c-0.572,0.254-1.173,0.398-1.803,0.413c-1.561,0.024-3.075,0.354-4.594,0.665  c-0.403,0.081-0.812,0.168-1.221,0.194c-1.065,0.074-2.132,0.135-3.2,0.16c-0.567,0.011-1.097,0.117-1.59,0.383  c-0.647,0.346-1.124-0.112-1.134-0.698c-0.009-0.586-0.009-1.171-0.002-1.76c0.003-0.283,0.078-0.573,0.312-0.738  c0.559-0.39,0.98-0.979,1.69-1.155c0.194-0.047,0.402-0.135,0.552-0.263c0.433-0.374,0.934-0.577,1.479-0.702  c0.133-0.03,0.277-0.075,0.38-0.156c0.601-0.473,1.319-0.541,2.037-0.646c0.612-0.091,1.224-0.219,1.812-0.405  c0.73-0.23,1.467-0.382,2.227-0.436c0.796-0.054,1.563-0.232,2.322-0.47c0.557-0.179,1.139-0.265,1.705-0.408  c0.397-0.103,0.81-0.188,1.172-0.367c0.439-0.216,0.881-0.407,1.364-0.453c0.706-0.063,1.132-0.441,1.362-1.087  C33.934,78.798,34.014,78.609,34.094,78.413z"/><g><g><path fill="#000000" d="M14.25,52.5c1.612,0,1.612-2.5,0-2.5S12.638,52.5,14.25,52.5L14.25,52.5z"/></g></g><text x="0" y="115" fill="#000000" font-size="5px" font-weight="bold" font-family="'Helvetica Neue', Helvetica, Arial-Unicode, Arial, Sans-serif">Created by Rajha Surya</text><text x="0" y="120" fill="#000000" font-size="5px" font-weight="bold" font-family="'Helvetica Neue', Helvetica, Arial-Unicode, Arial, Sans-serif">from the Noun Project</text></svg>